<?xml version="1.0" encoding="UTF-8"?>
<svg width="256px" height="171px" viewBox="0 0 256 171" version="1.1" xmlns="http://www.w3.org/2000/svg" xmlns:xlink="http://www.w3.org/1999/xlink">
    <title>logo</title>
    <g id="Page-1" stroke="none" stroke-width="1" fill="none" fill-rule="evenodd">
        <g id="logo">
            <g id="Group" transform="translate(0.000000, 55.000000)">
                <polygon id="Path" fill="#FFFFFF" points="160.16 6.06 183.48 6.06 184.27 6.85 184.85 7.44 201.83 24.62 202.4 25.21 202.83 25.63 222.24 6.32 223.66 4.9 225.56 3.02 227.44 4.92 228.85 6.34 249.83 27.53 251.25 28.96 253.13 30.86 251.22 32.74 249.79 34.15 238.78 44.95 237.35 46.35 235.45 48.22 233.58 46.31 232.18 44.88 224.54 37.1 224.54 75.88 232.19 68.16 233.59 66.75 235.46 64.86 237.36 66.72 238.78 68.11 249.37 78.5 250.82 79.92 252.75 81.81 250.83 83.71 249.4 85.14 227.8 106.64 226.39 108.05 224.51 109.92 222.62 108.05 221.21 106.64 203.17 88.7 203.17 88.96 202.4 89.74 201.83 90.33 184.85 107.51 184.27 108.1 183.48 108.89 160.12 108.89 159.34 108.09 158.75 107.48 147.33 95.75 145.94 94.33 144.09 92.43 145.99 90.57 147.4 89.17 152.18 84.47 152.18 51.13 151.72 51.82 149.44 55.19 112.48 109.92 109.2 109.92 105.11 109.92 102.29 109.92 103.28 106.87 110.47 84.83 109.27 86.03 87.66 107.53 86.25 108.94 84.37 110.81 82.49 108.94 81.08 107.53 68.29 94.81 68.25 94.85 66.83 96.27 53.67 109.44 52.25 110.86 50.35 112.75 48.47 110.85 47.05 109.42 36.83 99.12 26.51 109.44 25.09 110.86 23.2 112.75 21.31 110.85 19.9 109.42 6.84 96.26 5.43 94.84 3.56 92.96 5.44 91.08 6.85 89.67 11.34 85.17 11.34 32.08 12.13 31.3 12.73 30.71 34.43 9.21 35.84 7.81 37.73 5.95 39.61 7.82 41.02 9.23 60.57 28.79 60.57 28.64 61.36 27.85 61.95 27.27 82.11 7.21 83.53 5.8 85.43 3.91 87.31 5.81 88.72 7.23 109.7 28.42 111.12 29.85 113 31.76 111.09 33.63 109.65 35.04 98.65 45.84 97.22 47.24 95.31 49.11 93.45 47.2 92.05 45.78 84.41 37.99 84.41 76.77 92.06 69.05 93.46 67.64 95.33 65.76 97.22 67.61 98.65 69 101.12 71.43 102.2 68.82 103.41 65.84 120.69 23.63 121.22 22.35 121.92 20.65 145.57 20.65 145.86 20.36 147.27 18.94 158.79 7.42 159.38 6.84"></polygon>
                <path d="M57.67,32.49 L37.72,12.54 L16.02,34.04 L16.02,87.12 L10.16,92.98 L23.22,106.15 L36.39,92.98 L30.53,87.12 L30.53,75.09 L43.18,75.09 L43.18,87.12 L37.32,92.98 L50.38,106.15 L63.55,92.98 L57.69,87.12 L57.69,32.49 L57.67,32.49 Z M43.17,59.95 L30.52,59.95 L30.52,28.47 L43.17,41.12 L43.17,59.95 L43.17,59.95 Z" id="Shape" fill="#E32322" fill-rule="nonzero"></path>
                <polygon id="Path" fill="#E32322" fill-rule="nonzero" points="95.38 42.51 106.38 31.71 85.4 10.52 65.24 30.58 65.24 85.2 84.37 104.23 105.97 82.73 95.38 72.34 83.55 84.27 79.74 80.57 79.74 26.56"></polygon>
                <path d="M162.09,10.72 L150.57,22.24 L156.84,28.51 L156.84,86.42 L150.67,92.49 L162.09,104.22 L181.53,104.22 L198.5,87.04 L198.5,27.9 L181.53,10.72 L162.09,10.72 L162.09,10.72 Z M184,78.82 L171.35,91.06 L171.35,23.89 L184,36.13 L184,78.82 L184,78.82 Z" id="Shape" fill="#E32322" fill-rule="nonzero"></path>
                <polygon id="Path" fill="#E32322" fill-rule="nonzero" points="223.68 83.38 219.87 79.68 219.87 25.67 235.51 41.62 246.52 30.82 225.53 9.63 205.37 29.68 205.37 84.3 224.5 103.33 246.1 81.83 235.51 71.45"></polygon>
                <path d="M59.08,31.07 L59.67,31.66 L59.67,86.28 L64.95,91.56 L66.36,92.97 L64.95,94.38 L51.78,107.55 L50.36,108.97 L48.95,107.54 L36.84,95.34 L24.63,107.55 L23.21,108.97 L21.8,107.54 L8.74,94.37 L7.34,92.96 L8.75,91.55 L14.03,86.27 L14.03,33.19 L14.62,32.6 L36.32,11.1 L37.73,9.7 L59.08,31.07 L59.08,31.07 Z M37.72,9.71 L39.13,11.12 L37.72,9.71 L37.72,9.71 Z M32.51,57.95 L41.16,57.95 L41.16,41.96 L32.51,33.31 L32.51,57.95 L32.51,57.95 Z M36.84,90.6 L41.17,86.27 L41.17,77.07 L32.52,77.07 L32.52,86.27 L36.84,90.6 L36.84,90.6 Z M37.73,5.95 L35.84,7.82 L34.43,9.22 L12.73,30.72 L12.14,31.31 L11.35,32.09 L11.35,85.18 L6.85,89.68 L5.44,91.09 L3.56,92.97 L5.43,94.86 L6.83,96.27 L19.89,109.44 L21.3,110.87 L23.19,112.77 L25.08,110.88 L26.5,109.46 L36.82,99.14 L47.04,109.44 L48.45,110.87 L50.34,112.77 L52.23,110.88 L53.65,109.46 L66.82,96.29 L68.23,94.88 L70.12,92.99 L68.23,91.1 L66.82,89.69 L62.32,85.19 L62.32,30.57 L61.54,29.79 L60.95,29.2 L40.99,9.24 L39.58,7.83 L37.73,5.95 L37.73,5.95 L37.73,5.95 Z M35.18,55.28 L35.18,39.74 L38.5,43.06 L38.5,55.28 L35.18,55.28 L35.18,55.28 L35.18,55.28 Z M35.18,79.74 L38.5,79.74 L38.5,85.17 L36.84,86.83 L35.18,85.17 L35.18,79.74 L35.18,79.74 Z" id="Shape" fill="#E32322" fill-rule="nonzero"></path>
                <path d="M85.41,7.69 L86.82,9.11 L107.8,30.3 L109.21,31.73 L107.78,33.14 L96.77,43.94 L95.34,45.34 L93.94,43.91 L81.73,31.46 L81.73,79.72 L83.51,81.45 L93.94,70.93 L95.34,69.52 L96.76,70.91 L107.35,81.3 L108.8,82.72 L107.36,84.15 L85.76,105.65 L84.35,107.05 L82.94,105.65 L63.81,86.62 L63.22,86.03 L63.22,29.75 L63.81,29.16 L83.97,9.1 L85.41,7.69 L85.41,7.69 Z M85.43,3.91 L83.53,5.79 L82.11,7.2 L61.95,27.26 L61.36,27.85 L60.57,28.63 L60.57,87.13 L61.36,87.91 L61.95,88.5 L81.08,107.53 L82.49,108.93 L84.37,110.8 L86.25,108.93 L87.66,107.53 L109.26,86.03 L110.7,84.6 L112.61,82.7 L110.68,80.81 L109.23,79.39 L98.65,69 L97.23,67.61 L95.34,65.75 L93.47,67.63 L92.07,69.04 L84.42,76.76 L84.42,37.98 L92.06,45.77 L93.46,47.2 L95.33,49.1 L97.23,47.23 L98.66,45.83 L109.67,35.03 L111.1,33.62 L113.01,31.74 L111.12,29.84 L109.71,28.41 L88.73,7.22 L87.32,5.8 L85.43,3.91 L85.43,3.91 L85.43,3.91 Z" id="Shape" fill="#E32322" fill-rule="nonzero"></path>
                <path d="M182.37,8.72 L182.96,9.31 L199.93,26.49 L200.51,27.07 L200.51,87.86 L199.93,88.44 L182.96,105.62 L182.37,106.21 L161.25,106.21 L160.66,105.61 L149.24,93.88 L147.85,92.45 L149.27,91.05 L154.84,85.57 L154.84,29.33 L149.15,23.64 L147.74,22.23 L149.15,20.82 L160.67,9.3 L161.26,8.71 L182.37,8.71 L182.37,8.72 Z M173.35,86.34 L182,77.97 L182,36.98 L173.35,28.61 L173.35,86.34 L173.35,86.34 Z M183.48,6.06 L160.16,6.06 L159.38,6.84 L158.79,7.43 L147.27,18.95 L145.86,20.36 L143.97,22.25 L145.86,24.14 L147.27,25.55 L152.18,30.46 L152.18,84.48 L147.4,89.18 L145.98,90.58 L144.09,92.44 L145.94,94.34 L147.33,95.77 L158.75,107.5 L159.34,108.1 L160.13,108.91 L183.49,108.91 L184.27,108.12 L184.86,107.53 L201.83,90.35 L202.41,89.77 L203.18,88.99 L203.18,26.01 L202.41,25.23 L201.83,24.65 L184.86,7.47 L184.27,6.88 L183.48,6.06 L183.48,6.06 L183.48,6.06 Z M176.02,80.05 L176.02,34.9 L179.34,38.11 L179.34,76.84 L176.02,80.05 L176.02,80.05 L176.02,80.05 Z" id="Shape" fill="#E32322" fill-rule="nonzero"></path>
                <path d="M225.54,6.8 L226.95,8.22 L247.93,29.41 L249.34,30.84 L247.91,32.25 L236.9,43.05 L235.47,44.45 L234.07,43.02 L221.86,30.57 L221.86,78.83 L223.64,80.56 L234.07,70.04 L235.47,68.63 L236.89,70.02 L247.49,80.41 L248.94,81.83 L247.51,83.26 L225.91,104.76 L224.5,106.16 L223.09,104.76 L203.96,85.73 L203.37,85.14 L203.37,28.86 L203.96,28.27 L224.12,8.21 L225.54,6.8 L225.54,6.8 Z M225.56,3.02 L223.66,4.91 L222.24,6.32 L202.08,26.38 L201.49,26.97 L200.7,27.75 L200.7,86.25 L201.49,87.03 L202.08,87.62 L221.21,106.65 L222.62,108.05 L224.5,109.92 L226.38,108.05 L227.79,106.65 L249.39,85.15 L250.83,83.72 L252.74,81.82 L250.81,79.93 L249.36,78.51 L238.76,68.12 L237.34,66.73 L235.45,64.87 L233.58,66.75 L232.18,68.16 L224.53,75.88 L224.53,37.1 L232.16,44.89 L233.56,46.32 L235.43,48.22 L237.33,46.35 L238.76,44.95 L249.77,34.15 L251.2,32.74 L253.11,30.86 L251.22,28.96 L249.81,27.53 L228.83,6.34 L227.42,4.92 L225.56,3.02 L225.56,3.02 L225.56,3.02 Z" id="Shape" fill="#E32322" fill-rule="nonzero"></path>
                <path d="M141.33,25.61 L124.97,25.61 L107.69,67.82 L120.96,67.82 L108.66,105.53 L109.7,105.53 L145.65,52.29 L132.07,52.29 L141.33,25.61 L141.33,25.61 Z M144.2,23.49 L143.21,26.35 L134.95,50.17 L149.56,50.17 L147.29,53.54 L110.88,107.46 L105.93,107.46 L118.16,69.96 L104.65,69.96 L105.87,66.98 L123.15,24.77 L123.67,23.49 L144.2,23.49 L144.2,23.49 Z M112.48,109.92 L149.44,55.18 L151.71,51.81 L154.74,47.32 L138.76,47.32 L145.7,27.32 L146.69,24.46 L148.01,20.64 L148.01,20.64 L121.9,20.64 L121.2,22.34 L120.68,23.62 L103.4,65.83 L102.18,68.8 L100.56,72.77 L114.39,72.77 L103.27,106.86 L102.28,109.91 L105.1,109.91 L109.18,109.91 L112.48,109.91 L112.48,109.92 Z" id="Shape" fill="#E32322" fill-rule="nonzero"></path>
                <path d="M202.84,22.85 L222.28,3.51 L225.57,0.24 L251.23,26.15 L252.64,27.58 L255.91,30.88 L251.16,35.54 L235.42,50.98 L226.5,41.89 L226.5,71.11 L235.44,62.09 L240.15,66.7 L252.19,78.51 L255.54,81.79 L227.77,109.43 L224.51,112.68 L221.25,109.43 L219.84,108.03 L203.33,91.61 L184.32,110.85 L159.3,110.85 L145.93,97.12 L141.33,92.39 L146.03,87.77 L150.22,83.65 L150.22,57.54 L113.52,111.89 L99.59,111.89 L106.09,91.97 L87.64,110.33 L84.38,113.58 L79.7,108.93 L68.3,97.59 L55.06,110.83 L53.64,112.25 L50.35,115.53 L47.08,112.23 L45.66,110.8 L36.82,101.89 L23.19,115.52 L18.5,110.8 L4.03,96.22 L0.78,92.95 L9.37,84.36 L9.37,31.27 L37.72,3.18 L40.98,6.44 L60.49,25.95 L82.14,4.41 L85.43,1.14 L111.09,27.05 L112.5,28.48 L115.39,31.4 L120.59,18.7 L144.75,18.7 L157.99,5.46 L159.35,4.1 L184.31,4.1 L185.67,5.47 L202.84,22.85 L202.84,22.85 Z M114.88,32.66 L111.03,36.44 L95.29,51.88 L86.37,42.79 L86.37,72.01 L90.67,67.67 L95.31,62.99 L100.41,67.99 L101.6,65.09 L114.88,32.66 L114.88,32.66 Z M160.16,6.06 L183.48,6.06 L184.26,6.85 L184.85,7.44 L201.82,24.62 L202.4,25.2 L202.82,25.63 L222.23,6.32 L223.65,4.91 L225.55,3.02 L227.43,4.92 L228.84,6.34 L249.82,27.53 L251.23,28.96 L253.12,30.86 L251.21,32.74 L249.78,34.15 L238.77,44.95 L237.34,46.35 L235.44,48.22 L233.57,46.32 L232.17,44.89 L224.54,37.1 L224.54,75.88 L232.19,68.16 L233.59,66.75 L235.46,64.87 L237.35,66.73 L238.77,68.12 L249.37,78.51 L250.82,79.93 L252.75,81.82 L250.84,83.72 L249.4,85.15 L227.8,106.65 L226.39,108.05 L224.51,109.92 L222.63,108.05 L221.22,106.65 L203.18,88.71 L203.18,88.97 L202.41,89.75 L201.83,90.33 L184.86,107.51 L184.27,108.1 L183.49,108.89 L160.13,108.89 L159.34,108.08 L158.75,107.48 L147.33,95.75 L145.94,94.32 L144.09,92.42 L145.98,90.56 L147.4,89.16 L152.18,84.46 L152.18,51.12 L151.72,51.81 L149.45,55.18 L112.49,109.92 L109.21,109.92 L105.13,109.92 L102.31,109.92 L103.3,106.87 L110.49,84.83 L109.28,86.03 L87.68,107.53 L86.27,108.93 L84.39,110.8 L82.51,108.93 L81.1,107.53 L68.31,94.81 L68.27,94.85 L66.86,96.26 L53.69,109.43 L52.27,110.85 L50.38,112.74 L48.49,110.84 L47.08,109.41 L36.86,99.11 L26.54,109.43 L25.12,110.85 L23.23,112.74 L21.34,110.84 L19.93,109.41 L6.87,96.24 L5.47,94.83 L3.6,92.94 L5.48,91.06 L6.89,89.65 L11.39,85.15 L11.39,32.06 L12.18,31.28 L12.77,30.69 L34.47,9.19 L35.88,7.79 L37.77,5.92 L39.65,7.8 L41.06,9.21 L60.62,28.77 L60.62,28.62 L61.41,27.84 L62,27.25 L82.16,7.19 L83.58,5.78 L85.48,3.9 L87.36,5.8 L88.77,7.22 L109.75,28.41 L111.16,29.84 L113.05,31.74 L111.14,33.62 L109.71,35.03 L98.7,45.83 L97.27,47.23 L95.37,49.1 L93.5,47.2 L92.1,45.77 L84.46,37.98 L84.46,76.76 L92.11,69.04 L93.51,67.63 L95.38,65.75 L97.27,67.61 L98.69,69 L101.17,71.43 L102.24,68.81 L103.46,65.84 L120.74,23.63 L121.26,22.35 L121.96,20.65 L145.61,20.65 L145.9,20.36 L147.31,18.95 L158.83,7.43 L159.42,6.84 L160.16,6.06 L160.16,6.06 Z" id="Shape" fill="#FFFFFF"></path>
                <polygon id="Path" fill="#E32322" points="33.48 39.44 39.04 39.44 39.04 56.96 33.48 56.96"></polygon>
                <polygon id="Path" fill="#E32322" points="35.18 78.87 38.89 78.87 38.89 86.83 35.18 86.83"></polygon>
                <polygon id="Path" fill="#E32322" points="146.47 23.12 153.46 30.79 153.23 49.57 136.7 48.64"></polygon>
                <polygon id="Path" fill="#E32322" points="101.42 72.78 104.32 70.95 115.65 71.92 112.91 81.78 110.64 81.96"></polygon>
                <polygon id="Path" fill="#E32322" points="175.24 34.09 180.8 38.27 180.18 78.52 175.43 82.23"></polygon>
            </g>
            <g id="Group" transform="translate(55.000000, 0.000000)" fill="#FFFFFF" fill-rule="nonzero">
                <path d="M146.13,32.79 C146.1,31.18 145.26,5.75 144.89,4.28 C144.53,2.84 143.33,1.35 141.84,1.17 C139.93,0.95 132.91,1.21 131.07,1.11 C127.38,1.08 128.33,2.83 128.29,5.51 C128.28,5.79 128.29,6.52 128.32,7.58 C128.39,13.42 128.88,33.59 128.91,34.82 C128.9,43.98 133.11,42.19 134.97,42.3 C135.82,42.35 136.68,42.28 137.53,42.27 C139.12,42.27 140.7,42.31 142.29,42.26 C143.2,42.23 144.16,42.17 145,41.85 C145.52,41.65 146.18,40.95 146.2,40.46 C146.28,37.91 146.18,35.35 146.13,32.79 Z M139.19,36.99 C138.24,37.02 137.29,37.08 136.34,37.04 C135.46,37 134.93,36.53 134.78,35.66 C134.59,34.53 134.26,26.98 134.18,24.35 C134.05,19.79 133.89,15.23 133.78,10.67 C133.65,7.02 134.95,6.57 135.93,6.64 C136.22,6.66 138.33,6.45 139.04,6.62 C139.83,6.8 140.17,7.79 140.21,8.42 C140.23,8.74 140.99,33.23 141.05,34.24 C141.14,36.39 140.07,36.96 139.19,36.99 Z" id="Shape"></path>
                <path d="M125.39,40.65 C125.53,43.28 120.42,43.73 119.85,40.65 C119.76,40.35 119.64,31.67 119.68,32.13 C119.04,29.42 116.29,29.97 115.48,29.99 C114.42,30.01 113.55,30.84 113.49,31.9 C113.41,33.63 113.54,39.9 113.52,40.64 C113.01,43.75 108.01,43.14 108.05,40.65 C108.05,40.23 107.21,3.68 107.26,2.71 C107.3,2.05 108.25,1.13 108.94,1.03 C110.4,0.81 111.62,1.18 112.69,2.28 C114.9,4.57 123,13.15 123.07,13.21 C124.2,14.27 124.09,15.4 123.66,16.31 C123.48,17.11 118.95,22.53 118.72,22.92 C118.2,23.82 118.69,24.63 119.74,24.7 C120.56,24.75 121.41,24.76 122.19,24.97 C123.56,25.36 124.54,26.26 124.77,27.73 C125,29.14 125.3,38.26 125.39,40.65 Z M113.36,19.23 C113.47,19.7 113.87,19.78 114.22,19.55 C114.75,19.19 115.26,18.78 115.7,18.32 C116.07,17.88 116.33,17.5 116.74,16.92 C117.33,16.13 117.26,14.31 116.56,13.61 C115.85,12.9 115.12,12.21 114.37,11.55 C114.21,11.41 113.91,11.34 113.69,11.37 C113.57,11.39 113.43,11.67 113.4,11.85 C113.26,12.66 113.21,18.6 113.36,19.23 Z" id="Shape"></path>
                <path d="M5.01,42.74 C3.65,42.72 2.31,42.6 1.27,41.57 C1.09,41.39 0.93,41.09 0.92,40.84 C0.88,39.47 0.48,21.63 0.48,21.54 C0.51,20.27 0.43,18.99 0.63,17.74 C0.88,16.16 1.32,14.58 2.21,13.23 C2.84,12.28 3.65,11.44 4.44,10.61 C5.34,9.67 13.32,1.74 14.03,1.35 C16.87,0.04 18.74,3.62 17.87,4.72 C17.6,5.66 8.11,14.55 6.78,16.58 C6.57,16.89 6.41,17.28 6.39,17.65 C6.33,18.6 6.32,19.55 6.35,20.5 C6.37,21.47 7.21,22.26 8.18,22.29 C9.61,22.34 14.51,22.37 15.53,22.33 C19.12,22.6 18.35,27.59 15.63,27.57 C15.09,27.7 10.62,27.8 8.94,27.78 C7.72,27.76 6.58,28.67 6.69,30.17 C6.7,31.93 6.5,33.71 6.71,35.46 C6.85,36.69 7.23,37.37 8.82,37.38 C10.77,37.39 16.04,37.36 16.73,37.42 C18.91,37.73 19.16,42.42 16.45,42.72 C14.72,42.79 6.99,42.77 5.01,42.74 Z" id="Path"></path>
                <path d="M68.92,42.51 C67.98,42.53 67.06,42.38 66.37,41.81 C65.97,41.48 65.7,40.8 65.67,40.26 C65.48,36.87 64.97,19.65 65.04,18.3 C65.03,14.78 67.64,12.07 67.94,11.73 C68.31,11.3 75.51,4.03 76.98,2.56 C77.97,1.58 81.46,0.45 81.98,3.53 C82.1,6.92 82.21,10.31 82.32,13.7 C82.35,14.65 82.43,15.6 82.4,16.54 C82.44,18.75 77.94,19.38 77.12,16.49 C76.83,15.08 76.83,14.23 76.76,13.08 C76.74,12.76 76.47,12.33 76.2,12.18 C75.79,11.96 75.32,12.07 74.95,12.47 C73.9,13.59 72.81,14.67 71.74,15.77 C70.7,16.94 70.91,18.17 70.86,19.37 C70.83,20.5 70.94,32.75 71.02,34.26 C71.05,34.86 71.2,35.46 71.39,36.03 C71.64,36.78 72.41,37.24 73.21,37.25 C74.76,37.28 80.15,37.31 80.42,37.31 C83.99,37.31 83.1,42.51 81.46,42.48 C79.63,42.4 70.68,42.46 68.92,42.51 Z" id="Path"></path>
                <path d="M27.07,42.37 C26.08,42.28 21.77,42.44 21.78,39.21 C21.71,37.41 22.02,8.4 21.78,3.79 C22.22,0.25 27.89,0.07 28,3.87 C28.17,6.01 27.96,31.87 28.02,34.97 C28.05,37.82 34.26,37.97 34.13,34.85 C34.13,34.12 34.14,32.32 34.14,31.59 C34.23,28.71 39.94,29.07 39.82,31.73 C39.86,34.38 39.98,37.04 39.91,39.69 C39.87,41.23 38.72,42.31 37.09,42.35 C35.23,42.4 28.53,42.51 27.07,42.37 Z" id="Path"></path>
                <path d="M48.08,42.74 C46.72,42.72 45.38,42.6 44.34,41.57 C44.16,41.39 44,41.09 43.99,40.84 C43.95,39.47 43.55,21.63 43.55,21.54 C43.58,20.27 43.5,18.99 43.7,17.74 C43.95,16.16 44.39,14.58 45.28,13.23 C45.91,12.28 46.72,11.44 47.51,10.61 C48.41,9.67 56.39,1.74 57.1,1.35 C59.94,0.04 61.81,3.62 60.94,4.72 C60.67,5.66 51.18,14.55 49.85,16.58 C49.64,16.89 49.48,17.28 49.46,17.65 C49.4,18.6 49.39,19.55 49.42,20.5 C49.44,21.47 50.28,22.26 51.25,22.29 C52.68,22.34 57.58,22.37 58.6,22.33 C62.19,22.6 61.42,27.59 58.7,27.57 C58.16,27.7 53.69,27.8 52.01,27.78 C50.79,27.76 49.65,28.67 49.76,30.17 C49.77,31.93 49.57,33.71 49.78,35.46 C49.92,36.69 50.3,37.37 51.89,37.38 C53.84,37.39 59.11,37.36 59.8,37.42 C61.98,37.73 62.23,42.42 59.52,42.72 C57.8,42.79 50.06,42.77 48.08,42.74 Z" id="Path"></path>
                <g transform="translate(86.000000, 0.000000)" id="Path">
                    <path d="M16.98,3.56 C16.98,5.02 16.21,6.15 13.84,6.15 L12.88,6.15 C12.42,6.23 10.87,6.15 10.87,8.97 L10.87,40.4 C10.87,40.4 10.87,40.76 10.87,40.9 C10.54,43.48 6.38,43.31 6.19,40.9 C6.19,40.78 6.19,40.39 6.19,40.39 L6.19,8.97 C6.19,6.15 4.64,6.23 4.18,6.15 L3.22,6.15 C0.86,6.15 0.08,5.02 0.08,3.56 C0.08,2.1 1.21,0.88 3.22,0.97 L13.83,0.97 C15.85,0.88 16.98,2.1 16.98,3.56 Z"></path>
                    <line x1="10.88" y1="8.91" x2="10.88" y2="8.56"></line>
                </g>
            </g>
        </g>
    </g>
</svg>